<?xml version="1.0" standalone="no"?>
<!DOCTYPE svg PUBLIC "-//W3C//DTD SVG 20010904//EN"
 "http://www.w3.org/TR/2001/REC-SVG-20010904/DTD/svg10.dtd">
<svg version="1.0" xmlns="http://www.w3.org/2000/svg"
 width="168.000000pt" height="168.000000pt" viewBox="0 0 168.000000 168.000000"
 preserveAspectRatio="xMidYMid meet">
<metadata>
Created by potrace 1.14, written by Peter Selinger 2001-2017
</metadata>
<g transform="translate(0.000000,168.000000) scale(0.100000,-0.100000)"
fill="#000000" stroke="none">
<path d="M751 1633 c-31 -27 -34 -68 -7 -100 23 -27 26 -27 142 -28 111 -1
120 0 141 21 30 30 30 77 1 104 -19 18 -35 20 -139 20 -97 0 -120 -3 -138 -17z"/>
<path d="M645 1460 c-221 -74 -360 -196 -450 -393 -45 -101 -57 -156 -60 -282
-4 -124 15 -217 64 -320 97 -205 285 -353 507 -399 63 -13 214 -15 283 -3 147
26 308 122 413 246 227 267 220 691 -16 944 -30 32 -34 31 -98 -29 -66 -62
-64 -64 -63 53 1 121 2 120 -115 166 -143 56 -328 63 -465 17z m353 -36 c18
-3 36 -12 39 -18 4 -6 8 -86 8 -178 0 -168 -5 -190 -34 -154 -22 26 -131 67
-194 73 -146 13 -301 -68 -365 -189 -10 -21 -22 -35 -26 -33 -3 3 -4 2 -2 -1
2 -3 -3 -30 -11 -60 -42 -163 34 -343 181 -429 118 -69 287 -64 396 11 27 19
52 34 54 34 3 0 5 -10 4 -22 -2 -53 -3 -53 82 -52 44 0 83 4 87 8 4 4 8 156 8
338 l0 330 50 74 c28 40 53 73 57 74 13 0 86 -103 116 -165 48 -96 66 -177 65
-295 0 -166 -44 -291 -148 -422 -192 -241 -554 -314 -825 -166 -225 122 -359
347 -355 593 3 110 12 158 46 242 89 212 261 358 484 408 60 14 217 13 283 -1z
m-127 -475 c21 -10 41 -24 45 -30 10 -17 -115 -128 -143 -129 -26 0 -176 64
-180 77 -4 12 35 56 70 78 58 37 141 39 208 4z m-151 -307 c36 -34 70 -61 75
-61 6 0 50 47 100 105 49 57 90 104 91 104 1 0 1 -21 0 -47 -11 -198 -275
-270 -389 -106 -27 40 -46 105 -39 137 3 15 11 11 50 -26 26 -25 76 -73 112
-106z"/>
<path d="M839 1402 c-1 -4 -1 -34 0 -67 2 -65 20 -103 22 -44 0 18 1 51 2 71
1 23 -3 40 -10 43 -7 2 -14 1 -14 -3z"/>
<path d="M926 1384 c-8 -20 -8 -69 0 -61 8 7 17 77 11 77 -3 0 -8 -7 -11 -16z"/>
<path d="M682 1346 c6 -19 15 -33 19 -31 10 7 -5 58 -18 62 -8 3 -9 -5 -1 -31z"/>
<path d="M520 1318 c0 -15 38 -69 43 -61 3 5 -5 22 -18 39 -13 16 -24 26 -25
22z"/>
<path d="M410 1185 c13 -14 28 -25 33 -25 6 0 0 11 -13 25 -13 14 -28 25 -33
25 -6 0 0 -11 13 -25z"/>
<path d="M1324 1126 c-16 -14 -24 -25 -19 -25 15 -1 61 37 54 44 -4 3 -20 -5
-35 -19z"/>
<path d="M305 1057 c28 -19 55 -28 55 -18 0 9 -45 31 -63 31 -6 0 -3 -6 8 -13z"/>
<path d="M1390 984 l-25 -15 25 5 c14 3 31 6 38 6 6 0 12 5 12 10 0 14 -21 12
-50 -6z"/>
<path d="M235 912 c6 -5 26 -13 45 -17 23 -5 32 -4 25 3 -5 5 -26 13 -45 17
-23 5 -32 4 -25 -3z"/>
<path d="M230 840 c-33 -20 36 -36 129 -31 34 2 -9 23 -53 26 -25 2 -49 6 -54
9 -4 2 -14 1 -22 -4z"/>
<path d="M1436 843 c-1 -1 -17 -3 -35 -5 -18 -1 -37 -9 -44 -16 -10 -12 -4
-13 33 -9 25 3 55 6 68 6 28 1 30 27 2 27 -12 0 -22 -1 -24 -3z"/>
<path d="M253 673 c-13 -2 -23 -9 -23 -14 0 -11 50 -1 65 12 9 9 -2 10 -42 2z"/>
<path d="M1415 605 c17 -7 34 -10 39 -7 12 7 -21 21 -49 20 -15 0 -13 -3 10
-13z"/>
<path d="M312 521 c-18 -9 -30 -20 -27 -23 8 -7 65 23 65 35 0 4 -1 7 -2 6 -2
-1 -18 -9 -36 -18z"/>
<path d="M1330 481 c0 -8 44 -41 55 -41 15 0 1 17 -25 32 -17 9 -30 13 -30 9z"/>
<path d="M396 385 c-15 -12 -24 -25 -19 -28 10 -6 60 39 52 47 -2 2 -17 -6
-33 -19z"/>
<path d="M1236 361 c-6 -9 41 -57 48 -50 2 2 -6 16 -19 31 -13 16 -26 24 -29
19z"/>
<path d="M516 279 c-24 -40 -15 -47 12 -9 12 16 18 31 14 34 -5 3 -16 -9 -26
-25z"/>
<path d="M811 210 c-1 -54 1 -70 12 -70 10 0 14 15 16 51 1 27 2 53 2 57 3 20
-2 32 -15 32 -10 0 -14 -19 -15 -70z"/>
<path d="M1110 277 c0 -11 29 -67 35 -67 3 0 5 6 5 13 0 13 -39 67 -40 54z"/>
<path d="M662 228 c0 -7 -4 -23 -7 -35 -4 -13 -3 -23 2 -23 5 0 10 6 11 13 0
6 4 22 7 35 4 12 3 22 -2 22 -5 0 -10 -6 -11 -12z"/>
<path d="M973 183 c10 -32 13 -34 15 -15 4 28 -4 52 -17 52 -5 0 -4 -16 2 -37z"/>
</g>
</svg>
